
<svg  viewBox="0 0 53 64" version="1.1" xmlns="http://www.w3.org/2000/svg" xmlns:xlink="http://www.w3.org/1999/xlink">
        <g id="audit" transform="translate(-135.000000, 0.000000)"  fill-rule="nonzero">
            <g id="audit" transform="translate(135.000000, 0.000000)">
                <path d="M46.9053606,4.87511548 L37.3579631,4.87511548 C35.9778349,3.55999305 34.1122055,2.74999463 32.0598256,2.74999463 L30.964823,2.74999463 C30.1276961,1.09274787 28.407817,0 26.4999375,0 C24.592058,0 22.8723039,1.09274787 22.035052,2.74999463 L20.9374244,2.74999463 C18.8850445,2.74999463 17.0195401,3.55999305 15.6394119,4.87511548 L6.0947644,4.87511548 C2.73413145,4.87511548 0,7.60923514 0,10.9698536 L0,57.9052619 C0,61.2658803 2.73413145,64 6.0947644,64 L46.9052356,64 C50.2658686,64 53,61.2658803 53,57.9052619 L53,10.9698536 C53,7.60923514 50.2659936,4.87511548 46.9053606,4.87511548 Z M20.9375494,5.24998975 L22.885804,5.24998975 C23.4480553,5.24998975 23.9410565,4.87461548 24.0906818,4.33274154 C24.3888075,3.25361865 25.3795599,2.49999512 26.5000625,2.49999512 C27.6205651,2.49999512 28.6113175,3.25361865 28.9093182,4.33274154 C29.0589435,4.87461548 29.5520697,5.24998975 30.114196,5.24998975 L32.0598256,5.24998975 C34.772957,5.24998975 37.0062123,7.34373566 37.2290878,10.0001055 L15.7682872,10.0001055 C15.9911627,7.34373566 18.224543,5.24998975 20.9375494,5.24998975 Z M39.2425926,52.0000234 C39.5713433,52.0000234 39.8938441,52.1337732 40.1263446,52.3662727 C40.3588452,52.5987723 40.4925896,52.9212716 40.4925896,53.250021 C40.4925896,53.5787704 40.3588452,53.9012697 40.1263446,54.1337693 C39.8938441,54.3662688 39.5713433,54.5000234 39.2425926,54.5000234 C38.9138418,54.5000234 38.591341,54.3662688 38.3588405,54.1337693 C38.1263399,53.9012697 37.9925896,53.5787704 37.9925896,53.250021 C37.9925896,52.9212716 38.1263399,52.5987723 38.3588405,52.3662727 C38.591341,52.1337732 38.9138418,52.0000234 39.2425926,52.0000234 Z M33.9847052,51.9998984 C34.6750818,51.9998984 35.2347081,52.5595223 35.2347081,53.249896 C35.2347081,53.8971213 34.742849,54.4294341 34.1125138,54.493445 L33.9847052,54.4998984 L26.5000625,54.4998984 C25.8096859,54.4998984 25.2500596,53.9402696 25.2500596,53.249896 C25.2500596,52.6026707 25.7419186,52.0703622 26.3722538,52.0063518 L26.5000625,51.9998984 L33.9847052,51.9998984 Z M15.5000366,45.9999102 C16.1904132,45.9999102 16.7500395,46.5595341 16.7500395,47.2499077 L16.7500395,47.2499077 L16.7500395,53.249896 C16.7500395,53.9402696 16.1904132,54.4998936 15.5000366,54.4998936 L15.5000366,54.4998936 L9.5000224,54.4998936 C8.8096458,54.4998936 8.2500195,53.9402696 8.2500195,53.249896 L8.2500195,53.249896 L8.2500195,47.2499077 C8.2500195,46.5595341 8.8096458,45.9999102 9.5000224,45.9999102 L9.5000224,45.9999102 L15.5000366,45.9999102 Z M14.2500254,48.4999053 L10.7500254,48.4999053 L10.7500254,51.9999053 L14.2500254,51.9999053 L14.2500254,48.4999053 Z M44.500355,45.9999102 C45.1907316,45.9999102 45.7503579,46.5595341 45.7503579,47.2499077 C45.7503579,47.897133 45.2584988,48.4294458 44.6281636,48.4934567 L44.500355,48.4999102 L26.5000625,48.4999102 C25.8096859,48.4999102 25.2500596,47.9402814 25.2500596,47.2499077 C25.2500596,46.6026824 25.7419186,46.0703739 26.3722538,46.0063635 L26.5000625,45.9999102 L44.500355,45.9999102 Z M39.2425926,38.5000498 C39.5713433,38.5000498 39.8938441,38.6337995 40.1263446,38.8662991 C40.3588452,39.0987986 40.4925896,39.421298 40.4925896,39.7500474 C40.4925896,40.0787967 40.3588452,40.4012961 40.1263446,40.6337956 C39.8938441,40.8662952 39.5713433,41.0000498 39.2425926,41.0000498 C38.9138418,41.0000498 38.591341,40.8662952 38.3588405,40.6337956 C38.1263399,40.4012961 37.9925896,40.0787967 37.9925896,39.7500474 C37.9925896,39.421298 38.1263399,39.0987986 38.3588405,38.8662991 C38.591341,38.6337995 38.9138418,38.5000498 39.2425926,38.5000498 Z M33.9847052,38.4999248 C34.6750818,38.4999248 35.2347081,39.0595487 35.2347081,39.7499224 C35.2347081,40.3971477 34.742849,40.9294605 34.1125138,40.9934714 L33.9847052,40.9999248 L26.5000625,40.9999248 C25.8096859,40.9999248 25.2500596,40.440296 25.2500596,39.7499224 C25.2500596,39.1026971 25.7419186,38.5703885 26.3722538,38.5063782 L26.5000625,38.4999248 L33.9847052,38.4999248 Z M15.5000366,32.4999365 C16.1904132,32.4999365 16.7500395,33.0595604 16.7500395,33.7499341 L16.7500395,33.7499341 L16.7500395,39.7499224 C16.7500395,40.440296 16.1904132,40.9999199 15.5000366,40.9999199 L15.5000366,40.9999199 L9.5000224,40.9999199 C8.8096458,40.9999199 8.2500195,40.440296 8.2500195,39.7499224 L8.2500195,39.7499224 L8.2500195,33.7499341 C8.2500195,33.0595604 8.8096458,32.4999365 9.5000224,32.4999365 L9.5000224,32.4999365 L15.5000366,32.4999365 Z M14.2500254,34.9999316 L10.7500254,34.9999316 L10.7500254,38.4999316 L14.2500254,38.4999316 L14.2500254,34.9999316 Z M44.500355,32.4999365 C45.1907316,32.4999365 45.7503579,33.0595604 45.7503579,33.7499341 C45.7503579,34.3971594 45.2584988,34.9294722 44.6281636,34.9934831 L44.500355,34.9999365 L26.5000625,34.9999365 C25.8096859,34.9999365 25.2500596,34.4403077 25.2500596,33.7499341 C25.2500596,33.1027088 25.7419186,32.5704003 26.3722538,32.5063899 L26.5000625,32.4999365 L44.500355,32.4999365 Z M39.2425926,25.0000762 C39.5713433,25.0000762 39.8938441,25.1338259 40.1263446,25.3663255 C40.3588452,25.598825 40.4925896,25.9213244 40.4925896,26.2500737 C40.4925896,26.5788231 40.3588452,26.9013225 40.1263446,27.133822 C39.8938441,27.3663216 39.5713433,27.5000762 39.2425926,27.5000762 C38.9138418,27.5000762 38.591341,27.3663216 38.3588405,27.133822 C38.1263399,26.9013225 37.9925896,26.5788231 37.9925896,26.2500737 C37.9925896,25.9213244 38.1263399,25.598825 38.3588405,25.3663255 C38.591341,25.1338259 38.9138418,25.0000762 39.2425926,25.0000762 Z M33.9847052,24.9999512 C34.6750818,24.9999512 35.2347081,25.5595751 35.2347081,26.2499487 C35.2347081,26.897174 34.742849,27.4294869 34.1125138,27.4934977 L33.9847052,27.4999512 L26.5000625,27.4999512 C25.8096859,27.4999512 25.2500596,26.9403224 25.2500596,26.2499487 C25.2500596,25.6027234 25.7419186,25.0704149 26.3722538,25.0064046 L26.5000625,24.9999512 L33.9847052,24.9999512 Z M18.5511688,18.6994635 C19.0067532,19.1551626 19.0371255,19.8750256 18.6422856,20.365845 L18.5511688,20.467335 L12.3220291,26.6964479 C12.0780285,26.9405724 11.7580277,27.0625721 11.438152,27.0625721 C11.1639728,27.0625721 10.8897935,26.9729397 10.6633171,26.793596 L10.5542749,26.6964479 L8.0236439,24.1658278 C7.5355178,23.6775788 7.5355178,22.8860803 8.0236439,22.3979563 C8.479345,21.9424905 9.1992111,21.9121261 9.6900326,22.3068631 L9.7915231,22.3979563 L11.438152,24.044703 L16.7834146,18.6993385 C17.2715407,18.2113394 18.0630426,18.2113394 18.5511688,18.6994635 Z M44.500355,18.9999629 C45.1907316,18.9999629 45.7503579,19.5595868 45.7503579,20.2499604 C45.7503579,20.8971857 45.2584988,21.4294986 44.6281636,21.4935094 L44.500355,21.4999629 L26.5000625,21.4999629 C25.8096859,21.4999629 25.2500596,20.9403341 25.2500596,20.2499604 C25.2500596,19.6027352 25.7419186,19.0704266 26.3722538,19.0064163 L26.5000625,18.9999629 L44.500355,18.9999629 Z M26.4988125,5.3751145 C26.8275633,5.3751145 27.150064,5.50886424 27.3825646,5.74136379 C27.6150651,5.97386333 27.7488095,6.2963627 27.7488095,6.62511206 C27.7488095,6.95386142 27.6150651,7.27636079 27.3825646,7.50886033 C27.150064,7.74135988 26.8275633,7.8751145 26.4988125,7.8751145 C26.1700617,7.8751145 25.847561,7.74135988 25.6150604,7.50886033 C25.3825599,7.27636079 25.2488095,6.95386142 25.2488095,6.62511206 C25.2488095,6.2963627 25.3825599,5.97386333 25.6150604,5.74136379 C25.847561,5.50886424 26.1700617,5.3751145 26.4988125,5.3751145 Z" id="Shape"></path>
            </g>
        </g>
  
</svg>