
<svg  viewBox="0 0 64 64" version="1.1" xmlns="http://www.w3.org/2000/svg" xmlns:xlink="http://www.w3.org/1999/xlink">
        <g id="help" fill-rule="nonzero">
            <path d="M52.6201173,24.834961 C59.4438476,28.2827149 64,35.3706055 64,43.3125 C64,47.0361328 63.0083008,50.6572265 61.1240235,53.8388673 L61.1240235,53.8388673 L63.909668,63.909668 L53.8388673,61.1240235 C50.6572265,63.0083008 47.0361328,64 43.3125,64 C35.3706055,64 28.2827149,59.4438476 24.834961,52.6201173 C40.0625,52.4082031 52.4082031,40.0625 52.6201173,24.834961 Z M24.4375,3.7658765e-13 C37.9125976,3.7658765e-13 48.875,10.9624024 48.875,24.4375 C48.875,37.9125976 37.9125976,48.875 24.4375,48.875 C20.0458985,48.875 15.7700195,47.7060548 12.0161133,45.4863281 L12.0161133,45.4863281 L0.08984375,48.784668 L3.38867188,36.8588868 C1.16894525,33.1049805 3.7658765e-13,28.8291015 3.7658765e-13,24.4375 C3.7658765e-13,10.9624024 10.9624024,3.7658765e-13 24.4375,3.7658765e-13 Z M26.3125,33.875 L22.5625,33.875 L22.5625,37.625 L26.3125,37.625 L26.3125,33.875 Z M24.4375,11.25 C20.3017578,11.25 16.9375,14.6142578 16.9375,18.75 L16.9375,18.75 L20.6875,18.75 C20.6875,16.6821289 22.3696289,15 24.4375,15 C26.5053711,15 28.1875,16.6821289 28.1875,18.75 C28.1875,19.8149414 27.7539063,20.7978515 26.9667969,21.5180664 L26.9667969,21.5180664 L22.5625,25.5493164 L22.5625,30.125 L26.3125,30.125 L26.3125,27.2006836 L29.4985351,24.284668 C31.0488281,22.8666993 31.9375,20.8491211 31.9375,18.75 C31.9375,14.6142578 28.5732423,11.25 24.4375,11.25 Z" id="Combined-Shape"></path> 
</svg>