
<svg viewBox="0 0 53 65" version="1.1" xmlns="http://www.w3.org/2000/svg" xmlns:xlink="http://www.w3.org/1999/xlink">
        <g id="report" transform="translate(-134.000000, 0.000000)"  fill-rule="nonzero">
            <path d="M180.305,0 C183.951188,0 186.92,3.004155 186.92,6.69375 L186.92,57.56625 C186.92,61.255845 183.951188,64.26 180.305,64.26 L140.615,64.26 C136.968812,64.26 134,61.255845 134,57.56625 L134,6.69375 C134,3.004155 136.968812,0 140.615,0 L180.305,0 Z M177.659,53.55 L143.261,53.55 C142.530704,53.55 141.938,54.14976 141.938,54.88875 C141.938,55.62774 142.530704,56.2275 143.261,56.2275 L143.261,56.2275 L177.659,56.2275 C178.389296,56.2275 178.982,55.62774 178.982,54.88875 C178.982,54.14976 178.389296,53.55 177.659,53.55 L177.659,53.55 Z M177.659,45.5175 L172.367,45.5175 C171.636704,45.5175 171.044,46.11726 171.044,46.85625 C171.044,47.59524 171.636704,48.195 172.367,48.195 L172.367,48.195 L177.659,48.195 C178.389296,48.195 178.982,47.59524 178.982,46.85625 C178.982,46.11726 178.389296,45.5175 177.659,45.5175 L177.659,45.5175 Z M155.168,21.42 C147.872978,21.42 141.938,27.4256325 141.938,34.8075 C141.938,38.4444589 143.378666,41.7473482 145.712856,44.1625109 L145.71543,44.1665557 L145.811744,44.27514 C145.845914,44.3093639 145.881462,44.3413561 145.918207,44.3711105 C148.305315,46.7351804 151.571361,48.195 155.168,48.195 C162.463022,48.195 168.398,42.1893675 168.398,34.8075 C168.398,27.4256325 162.463022,21.42 155.168,21.42 Z M156.490242,24.1806072 C161.705339,24.8408483 165.752,29.3539756 165.752,34.8075 C165.752,40.714065 161.005076,45.5175 155.168,45.5175 C152.72605,45.5175 150.474896,44.6768122 148.682284,43.2663694 L156.104684,35.755335 C156.350762,35.50365 156.491,35.1636075 156.491,34.8075 L156.491,34.8075 Z M153.844761,24.1807335 L153.845,34.2532575 L146.81031,41.3725905 C145.415458,39.5582858 144.584,37.2795035 144.584,34.8075 C144.584,29.3543233 148.630145,24.8414237 153.844761,24.1807335 Z M177.659,37.485 L172.367,37.485 C171.636704,37.485 171.044,38.08476 171.044,38.82375 C171.044,39.56274 171.636704,40.1625 172.367,40.1625 L172.367,40.1625 L177.659,40.1625 C178.389296,40.1625 178.982,39.56274 178.982,38.82375 C178.982,38.08476 178.389296,37.485 177.659,37.485 L177.659,37.485 Z M177.659,29.4525 L172.367,29.4525 C171.636704,29.4525 171.044,30.05226 171.044,30.79125 C171.044,31.53024 171.636704,32.13 172.367,32.13 L172.367,32.13 L177.659,32.13 C178.389296,32.13 178.982,31.53024 178.982,30.79125 C178.982,30.05226 178.389296,29.4525 177.659,29.4525 L177.659,29.4525 Z M177.659,21.42 L172.367,21.42 C171.636704,21.42 171.044,22.01976 171.044,22.75875 C171.044,23.49774 171.636704,24.0975 172.367,24.0975 L172.367,24.0975 L177.659,24.0975 C178.389296,24.0975 178.982,23.49774 178.982,22.75875 C178.982,22.01976 178.389296,21.42 177.659,21.42 L177.659,21.42 Z" id="report"></path>
        </g>
</svg>