
<svg  viewBox="0 0 64 64" version="1.1" xmlns="http://www.w3.org/2000/svg" xmlns:xlink="http://www.w3.org/1999/xlink">
        <g id="settings" transform="translate(-64.000000, 0.000000)" fill-rule="nonzero">
            <path d="M98.6666667,0 C100.872,0 102.666667,1.79466667 102.666667,4 L102.666667,8.96533333 C104.373333,9.45866667 106.016,10.14 107.570667,10.9986667 L111.084,7.48533333 C112.596,5.976 115.229333,5.97333333 116.741333,7.48533333 L120.513333,11.256 C121.269333,12.0106667 121.685333,13.016 121.685333,14.084 C121.685333,15.152 121.269333,16.1573333 120.513333,16.912 L117.001333,20.4253333 C117.862667,21.9826667 118.544,23.6253333 119.036,25.332 L124,25.332 C126.205333,25.332 128,27.1266667 128,29.332 L128,34.6653333 C128,35.7346667 127.584,36.7386667 126.829333,37.4933333 C126.074667,38.248 125.069333,38.6653333 124,38.6653333 L119.034667,38.6653333 C118.541333,40.372 117.86,42.016 117,43.572 L120.512,47.0853333 C122.072,48.6453333 122.072,51.1813333 120.512,52.7413333 L116.741333,56.5133333 C115.229333,58.024 112.596,58.024 111.084,56.5133333 L107.573333,53 C106.016,53.8613333 104.372,54.5413333 102.668,55.0346667 L102.668,60 C102.666667,62.2053333 100.873333,64 98.6666667,64 L93.3333333,64 C91.128,64 89.3333333,62.2053333 89.3333333,60 L89.3333333,55.0346667 C87.6266667,54.5413333 85.984,53.86 84.4253333,52.9986667 L80.9133333,56.512 C79.4013333,58.024 76.768,58.0213333 75.256,56.512 L71.484,52.7413333 C70.728,51.9866667 70.312,50.9813333 70.312,49.9133333 C70.312,48.8453333 70.728,47.84 71.484,47.0853333 L74.9973333,43.5706667 C74.1373333,42.016 73.456,40.3733333 72.964,38.6653333 L68,38.6653333 C65.7946667,38.6653333 64,36.8706667 64,34.6653333 L64,29.332 C64,28.2626667 64.416,27.2586667 65.1706667,26.504 C65.9266667,25.7493333 66.9306667,25.332 68,25.332 L72.9653333,25.332 C73.4586667,23.628 74.1386667,21.984 75,20.4266667 L71.488,16.9133333 C69.928,15.3533333 69.928,12.8173333 71.488,11.2573333 L75.2586667,7.48533333 C76.7693333,5.976 79.404,5.97333333 80.916,7.48533333 L84.4293333,10.9986667 C85.9866667,10.1386667 87.6293333,9.45733333 89.3333333,8.96533333 L89.3333333,4 C89.3333333,1.79466667 91.128,0 93.3333333,0 L98.6666667,0 Z M96,19.2 C88.94208,19.2 83.2,24.94208 83.2,32 C83.2,39.05792 88.94208,44.8 96,44.8 C103.0592,44.8 108.8,39.05792 108.8,32 C108.8,24.94208 103.05792,19.2 96,19.2 Z" id="settings"></path>
        </g>
</svg>